<svg width="1024" height="1024" viewBox="0 0 1024 1024" fill="none" xmlns="http://www.w3.org/2000/svg">
<g transform="translate(100 100) scale(6.4375)">
  <defs>
    <linearGradient id="paper" x1="0" y1="0" x2="0" y2="128" gradientUnits="userSpaceOnUse">
      <stop stop-color="#ffffff"/><stop offset="1" stop-color="#f3f1ec"/>
    </linearGradient>
    <linearGradient id="fold" x1="128" y1="0" x2="90" y2="38" gradientUnits="userSpaceOnUse">
      <stop stop-color="#f2efea"/><stop offset="1" stop-color="#e2ded6"/>
    </linearGradient>
    <clipPath id="tile"><rect width="128" height="128" rx="28.5"/></clipPath>
    <filter id="foldShadow" x="-50%" y="-50%" width="200%" height="200%"><feGaussianBlur stdDeviation="1.6"/></filter>
    <filter id="tileShadow" x="-20%" y="-20%" width="140%" height="150%"><feGaussianBlur stdDeviation="0.8"/></filter>
  </defs>
  <rect y="1.55" width="128" height="128" rx="28.5" fill="#000" fill-opacity="0.3" filter="url(#tileShadow)"/>
  <rect width="128" height="128" rx="28.5" fill="url(#paper)"/>
  <g clip-path="url(#tile)">
      <path d="M16 24H112" stroke="#ece9e3" stroke-width="3" stroke-linecap="round"/>
      <path d="M16 44H112" stroke="#ece9e3" stroke-width="3" stroke-linecap="round"/>
      <path d="M16 64H112" stroke="#ece9e3" stroke-width="3" stroke-linecap="round"/>
      <path d="M16 84H112" stroke="#ece9e3" stroke-width="3" stroke-linecap="round"/>
      <path d="M16 104H112" stroke="#ece9e3" stroke-width="3" stroke-linecap="round"/>
      <path transform="translate(1.17 0)" fill="#4a4946" d="M32.848 50.736V57H40.048V60.36H32.848V81H29.488V60.36H26.2V57H29.488V50.736C29.488 49.568 29.768 48.512 30.328 47.568C30.904 46.608 31.672 45.848 32.632 45.288C33.592 44.712 34.656 44.424 35.824 44.424C36.672 44.424 37.488 44.592 38.272 44.928C39.072 45.264 39.784 45.76 40.408 46.416L38.008 48.792C37.752 48.472 37.424 48.224 37.024 48.048C36.64 47.872 36.24 47.784 35.824 47.784C35.008 47.784 34.304 48.072 33.712 48.648C33.136 49.224 32.848 49.92 32.848 50.736ZM44.1456 81V45H47.5056V81H44.1456ZM63.6588 81.624C61.4508 81.624 59.4348 81.056 57.6108 79.92C55.8028 78.784 54.3548 77.264 53.2668 75.36C52.1948 73.44 51.6588 71.32 51.6588 69C51.6588 67.24 51.9708 65.6 52.5948 64.08C53.2188 62.544 54.0748 61.2 55.1628 60.048C56.2668 58.88 57.5468 57.968 59.0028 57.312C60.4588 56.656 62.0108 56.328 63.6588 56.328C65.8668 56.328 67.8748 56.896 69.6828 58.032C71.5068 59.168 72.9548 60.696 74.0268 62.616C75.1148 64.536 75.6588 66.664 75.6588 69C75.6588 70.744 75.3468 72.376 74.7228 73.896C74.0988 75.416 73.2348 76.76 72.1308 77.928C71.0428 79.08 69.7708 79.984 68.3148 80.64C66.8748 81.296 65.3228 81.624 63.6588 81.624ZM63.6588 78.264C65.2908 78.264 66.7548 77.84 68.0508 76.992C69.3628 76.128 70.3948 74.992 71.1468 73.584C71.9148 72.176 72.2988 70.648 72.2988 69C72.2988 67.32 71.9148 65.776 71.1468 64.368C70.3788 62.944 69.3388 61.808 68.0268 60.96C66.7308 60.112 65.2748 59.688 63.6588 59.688C62.0268 59.688 60.5548 60.12 59.2428 60.984C57.9468 61.832 56.9148 62.96 56.1468 64.368C55.3948 65.776 55.0188 67.32 55.0188 69C55.0188 70.728 55.4108 72.296 56.1948 73.704C56.9788 75.096 58.0268 76.208 59.3388 77.04C60.6508 77.856 62.0908 78.264 63.6588 78.264ZM78.5294 71.808V57H81.8894V71.136C81.8894 72.448 82.2094 73.64 82.8494 74.712C83.4894 75.784 84.3454 76.64 85.4174 77.28C86.5054 77.92 87.6974 78.24 88.9934 78.24C90.3054 78.24 91.4894 77.92 92.5454 77.28C93.6174 76.64 94.4734 75.784 95.1134 74.712C95.7534 73.64 96.0734 72.448 96.0734 71.136V57H99.4334L99.4574 81H96.0974L96.0734 77.64C95.2254 78.856 94.1214 79.824 92.7614 80.544C91.4174 81.264 89.9454 81.624 88.3454 81.624C86.5374 81.624 84.8894 81.184 83.4014 80.304C81.9134 79.424 80.7294 78.24 79.8494 76.752C78.9694 75.264 78.5294 73.616 78.5294 71.808Z"/>
      <path transform="translate(-1.5 2)" d="M140 -12V38H102A12 12 0 0 1 90 26V-12Z" fill="#000" fill-opacity="0.12" filter="url(#foldShadow)"/>
      <path d="M140 -12V38H102A12 12 0 0 1 90 26V-12Z" fill="url(#fold)" stroke="#c9c4ba" stroke-width="2.5"/>
  </g>
  <rect x="0.4" y="0.4" width="127.2" height="127.2" rx="28.1" fill="none" stroke="#000" stroke-opacity="0.07" stroke-width="0.8"/>
</g>
</svg>
